<svg xmlns="http://www.w3.org/2000/svg" viewBox="0 0 400 100">
  <!-- Background -->
  <rect width="400" height="100" fill="#ffffff"/>
  
  <!-- Main title with Wordle-style boxes -->
  <g>
    <!-- C -->
    <rect x="20" y="20" width="35" height="35" rx="4" fill="#538d4e"/>
    <text x="37.5" y="44" font-family="Arial, sans-serif" font-size="22" font-weight="bold" text-anchor="middle" fill="white">C</text>
    
    <!-- I -->
    <rect x="60" y="20" width="35" height="35" rx="4" fill="#538d4e"/>
    <text x="77.5" y="44" font-family="Arial, sans-serif" font-size="22" font-weight="bold" text-anchor="middle" fill="white">I</text>
    
    <!-- N -->
    <rect x="100" y="20" width="35" height="35" rx="4" fill="#b59f3b"/>
    <text x="117.5" y="44" font-family="Arial, sans-serif" font-size="22" font-weight="bold" text-anchor="middle" fill="white">N</text>
    
    <!-- E -->
    <rect x="140" y="20" width="35" height="35" rx="4" fill="#b59f3b"/>
    <text x="157.5" y="44" font-family="Arial, sans-serif" font-size="22" font-weight="bold" text-anchor="middle" fill="white">E</text>
    
    <!-- M -->
    <rect x="180" y="20" width="35" height="35" rx="4" fill="#3a3a3c"/>
    <text x="197.5" y="44" font-family="Arial, sans-serif" font-size="22" font-weight="bold" text-anchor="middle" fill="white">M</text>
    
    <!-- A -->
    <rect x="220" y="20" width="35" height="35" rx="4" fill="#538d4e"/>
    <text x="237.5" y="44" font-family="Arial, sans-serif" font-size="22" font-weight="bold" text-anchor="middle" fill="white">A</text>
    
    <!-- D -->
    <rect x="260" y="20" width="35" height="35" rx="4" fill="#3a3a3c"/>
    <text x="277.5" y="44" font-family="Arial, sans-serif" font-size="22" font-weight="bold" text-anchor="middle" fill="white">D</text>
    
    <!-- L -->
    <rect x="300" y="20" width="35" height="35" rx="4" fill="#b59f3b"/>
    <text x="317.5" y="44" font-family="Arial, sans-serif" font-size="22" font-weight="bold" text-anchor="middle" fill="white">L</text>
    
    <!-- E -->
    <rect x="340" y="20" width="35" height="35" rx="4" fill="#538d4e"/>
    <text x="357.5" y="44" font-family="Arial, sans-serif" font-size="22" font-weight="bold" text-anchor="middle" fill="white">E</text>
  </g>
  
  <!-- Subtitle -->
  <text x="197.5" y="75" font-family="Arial, sans-serif" font-size="14" text-anchor="middle" fill="#666">guess the movie in 10 tries</text>
  
  <!-- Film strip decoration -->
  <g fill="#1a1a1a" opacity="0.2">
    <rect x="20" y="85" width="4" height="4" rx="0.5"/>
    <rect x="28" y="85" width="4" height="4" rx="0.5"/>
    <rect x="36" y="85" width="4" height="4" rx="0.5"/>
    
    <rect x="355" y="85" width="4" height="4" rx="0.5"/>
    <rect x="363" y="85" width="4" height="4" rx="0.5"/>
    <rect x="371" y="85" width="4" height="4" rx="0.5"/>
  </g>
</svg>