<svg xmlns="http://www.w3.org/2000/svg" viewBox="0 0 32 32">
  <!-- Background -->
  <rect width="32" height="32" rx="6" fill="#1a1a1a"/>
  
  <!-- Film strip holes -->
  <rect x="4" y="4" width="3" height="3" rx="0.5" fill="#fff"/>
  <rect x="4" y="9" width="3" height="3" rx="0.5" fill="#fff"/>
  <rect x="4" y="14" width="3" height="3" rx="0.5" fill="#fff"/>
  <rect x="4" y="19" width="3" height="3" rx="0.5" fill="#fff"/>
  <rect x="4" y="25" width="3" height="3" rx="0.5" fill="#fff"/>
  
  <rect x="25" y="4" width="3" height="3" rx="0.5" fill="#fff"/>
  <rect x="25" y="9" width="3" height="3" rx="0.5" fill="#fff"/>
  <rect x="25" y="14" width="3" height="3" rx="0.5" fill="#fff"/>
  <rect x="25" y="19" width="3" height="3" rx="0.5" fill="#fff"/>
  <rect x="25" y="25" width="3" height="3" rx="0.5" fill="#fff"/>
  
  <!-- Letter C in Wordle style -->
  <rect x="10" y="10" width="12" height="12" rx="2" fill="#538d4e" stroke="#538d4e" stroke-width="0.5"/>
  <text x="16" y="20" font-family="Arial, sans-serif" font-size="10" font-weight="bold" text-anchor="middle" fill="white">C</text>
</svg>